<svg xmlns="http://www.w3.org/2000/svg" version="1.1" xmlns:xlink="http://www.w3.org/1999/xlink" xmlns:svgjs="http://svgjs.com/svgjs" width="491.52" height="491.52"><svg version="1.1" id="SvgjsSvg1000" xmlns="http://www.w3.org/2000/svg" xmlns:xlink="http://www.w3.org/1999/xlink" x="0px" y="0px" viewBox="0 0 491.52 491.52" style="enable-background:new 0 0 491.52 491.52;" xml:space="preserve">
<path style="fill:#E1E6E9;" d="M427.889,0H63.631C28.488,0,0,28.488,0,63.63v364.258c0,35.143,28.488,63.631,63.631,63.631h364.257
	c35.143,0,63.631-28.489,63.631-63.631V63.63C491.52,28.488,463.031,0,427.889,0z"></path>
<rect y="164.966" style="fill:#E56353;" width="491.52" height="161.623"></rect>
<circle style="fill:#D5D6DB;" cx="245.76" cy="254.73" r="161.608"></circle>
<circle style="fill:#FFFFFF;" cx="245.76" cy="245.76" r="161.608"></circle>
<circle style="fill:#3A556A;" cx="245.76" cy="245.76" r="120.402"></circle>
<circle style="fill:#64798A;" cx="245.76" cy="245.76" r="101.545"></circle>
<circle style="fill:#3A556A;" cx="245.76" cy="245.76" r="85.135"></circle>
<circle style="fill:#2F4859;" cx="245.76" cy="245.76" r="44.6"></circle>
<circle style="fill:#64798A;" cx="271.099" cy="220.416" r="19.261"></circle>
<circle style="fill:#E56353;" cx="424.346" cy="67.174" r="22.482"></circle>
<g>
</g>
<g>
</g>
<g>
</g>
<g>
</g>
<g>
</g>
<g>
</g>
<g>
</g>
<g>
</g>
<g>
</g>
<g>
</g>
<g>
</g>
<g>
</g>
<g>
</g>
<g>
</g>
<g>
</g>
</svg><style>@media (prefers-color-scheme: light) { :root { filter: contrast(1) brightness(0.9); } }
@media (prefers-color-scheme: dark) { :root { filter: none; } }
</style></svg>